<svg width="16" height="16" viewBox="0 0 16 16" fill="none" xmlns="http://www.w3.org/2000/svg">
<g clip-path="url(#clip0_2146_18679)">
<path d="M6.00001 14.6666C6.3682 14.6666 6.66668 14.3681 6.66668 13.9999C6.66668 13.6317 6.3682 13.3333 6.00001 13.3333C5.63182 13.3333 5.33334 13.6317 5.33334 13.9999C5.33334 14.3681 5.63182 14.6666 6.00001 14.6666Z" stroke="#5D5D5D" stroke-width="2" stroke-linecap="round" stroke-linejoin="round"/>
<path d="M13.3333 14.6666C13.7015 14.6666 14 14.3681 14 13.9999C14 13.6317 13.7015 13.3333 13.3333 13.3333C12.9651 13.3333 12.6667 13.6317 12.6667 13.9999C12.6667 14.3681 12.9651 14.6666 13.3333 14.6666Z" stroke="#5D5D5D" stroke-width="2" stroke-linecap="round" stroke-linejoin="round"/>
<path d="M0.666656 0.666748H3.33332L5.11999 9.59341C5.18095 9.90034 5.34793 10.1761 5.59169 10.3723C5.83544 10.5685 6.14045 10.6727 6.45332 10.6667H12.9333C13.2462 10.6727 13.5512 10.5685 13.795 10.3723C14.0387 10.1761 14.2057 9.90034 14.2667 9.59341L15.3333 4.00008H3.99999" stroke="#5D5D5D" stroke-width="2" stroke-linecap="round" stroke-linejoin="round"/>
</g>
<defs>
<clipPath id="clip0_2146_18679">
<rect width="16" height="16" fill="white"/>
</clipPath>
</defs>
</svg>
